<?xml version="1.0" encoding="UTF-8"?>
<svg version="1.1" xmlns="http://www.w3.org/2000/svg" width="2172" height="724">
<path d="M0 0 C716.76 0 1433.52 0 2172 0 C2172 238.92 2172 477.84 2172 724 C1455.24 724 738.48 724 0 724 C0 485.08 0 246.16 0 0 Z " fill="#202041" transform="translate(0,0)"/>
<path d="M0 0 C124.74 0 249.48 0 378 0 C378 14.19 378 28.38 378 43 C406.38 43 434.76 43 464 43 C464 56.86 464 70.72 464 85 C491.39 85 518.78 85 547 85 C547 131.2 547 177.4 547 225 C490.24 225 433.48 225 375 225 C375 285.06 375 345.12 375 407 C431.43 407 487.86 407 546 407 C546 421.85 546 436.7 546 452 C456.24 452 366.48 452 274 452 C274 391.28 274 330.56 274 268 C218.89 268 163.78 268 107 268 C107 253.81 107 239.62 107 225 C71.36 225 35.72 225 -1 225 C-1 285.06 -1 345.12 -1 407 C60.71 407 122.42 407 186 407 C186 421.85 186 436.7 186 452 C95.58 452 5.16 452 -88 452 C-88 377.09 -88 302.18 -88 225 C-115.06 225 -142.12 225 -170 225 C-170 178.8 -170 132.6 -170 85 C-142.61 85 -115.22 85 -87 85 C-87 71.14 -87 57.28 -87 43 C-58.29 43 -29.58 43 0 43 C0 28.81 0 14.62 0 0 Z " fill="#EC7728" transform="translate(317,121)"/>
<path d="M0 0 C57.75 0 115.5 0 175 0 C175 30.69 175 61.38 175 93 C117.25 93 59.5 93 0 93 C0 62.31 0 31.62 0 0 Z " fill="#212141" transform="translate(518,206)"/>
<path d="M0 0 C26.73 0 53.46 0 81 0 C81 47.52 81 95.04 81 144 C74.73 144 68.46 144 62 144 C62 128.82 62 113.64 62 98 C38.9 98 15.8 98 -8 98 C-8 113.18 -8 128.36 -8 144 C-14.27 144 -20.54 144 -27 144 C-27 106.05 -27 68.1 -27 29 C-24.03 29 -21.06 29 -18 29 C-18 26.03 -18 23.06 -18 20 C-15.03 20 -12.06 20 -9 20 C-9 17.36 -9 14.72 -9 12 C-6.03 12 -3.06 12 0 12 C0 8.04 0 4.08 0 0 Z " fill="#EB7728" transform="translate(1576,272)"/>
<path d="M0 0 C29.04 0 58.08 0 88 0 C88 5.28 88 10.56 88 16 C93.61 16 99.22 16 105 16 C105 33.82 105 51.64 105 70 C102.03 70 99.06 70 96 70 C96 72.97 96 75.94 96 79 C93.36 79 90.72 79 88 79 C88 81.64 88 84.28 88 87 C85.03 87 82.06 87 79 87 C79 90.63 79 94.26 79 98 C81.97 98 84.94 98 88 98 C88 100.64 88 103.28 88 106 C90.64 106 93.28 106 96 106 C96 108.97 96 111.94 96 115 C99.3 115 102.6 115 106 115 C106 124.57 106 134.14 106 144 C99.73 144 93.46 144 87 144 C87 136.74 87 129.48 87 122 C84.03 122 81.06 122 78 122 C78 119.03 78 116.06 78 113 C74.7 113 71.4 113 68 113 C68 110.36 68 107.72 68 105 C65.36 105 62.72 105 60 105 C60 102.36 60 99.72 60 97 C57.03 97 54.06 97 51 97 C51 94.03 51 91.06 51 88 C40.44 88 29.88 88 19 88 C19 106.48 19 124.96 19 144 C12.73 144 6.46 144 0 144 C0 96.48 0 48.96 0 0 Z " fill="#EC7828" transform="translate(1411,272)"/>
<path d="M0 0 C6.27 0 12.54 0 19 0 C19 5.61 19 11.22 19 17 C22.3 17 25.6 17 29 17 C29 19.31 29 21.62 29 24 C31.64 24 34.28 24 37 24 C37 26.64 37 29.28 37 32 C39.97 32 42.94 32 46 32 C46 34.64 46 37.28 46 40 C48.64 40 51.28 40 54 40 C54 42.64 54 45.28 54 48 C56.97 48 59.94 48 63 48 C63 50.97 63 53.94 63 57 C64.299375 56.979375 65.59875 56.95875 66.9375 56.9375 C68.29165633 56.91600546 69.64756083 56.92851801 71 57 C72 58 72 58 72.09765625 60.06640625 C72.08605469 60.89011719 72.07445312 61.71382813 72.0625 62.5625 C72.05347656 63.38878906 72.04445313 64.21507812 72.03515625 65.06640625 C72.02355469 65.70449219 72.01195312 66.34257812 72 67 C74.64 67 77.28 67 80 67 C80 67.99 80 68.98 80 70 C80.66 70 81.32 70 82 70 C82 72.64 82 75.28 82 78 C84.64 78 87.28 78 90 78 C90 52.26 90 26.52 90 0 C96.27 0 102.54 0 109 0 C109 47.85 109 95.7 109 145 C102.73 145 96.46 145 90 145 C90 129.49 90 113.98 90 98 C86.7 98 83.4 98 80 98 C80 95.03 80 92.06 80 89 C77.03 89 74.06 89 71 89 C71 87.35 71 85.7 71 84 C69.02 84 67.04 84 65 84 C65 81.36 65 78.72 65 76 C61.7 76 58.4 76 55 76 C55 73.03 55 70.06 55 67 C52.03 67 49.06 67 46 67 C46 64.03 46 61.06 46 58 C43.03 58 40.06 58 37 58 C37 55.03 37 52.06 37 49 C34.03 49 31.06 49 28 49 C28 46.03 28 43.06 28 40 C25.03 40 22.06 40 19 40 C19 74.65 19 109.3 19 145 C12.73 145 6.46 145 0 145 C0 97.15 0 49.3 0 0 Z " fill="#EB7728" transform="translate(1689,271)"/>
<path d="M0 0 C6.27 0 12.54 0 19 0 C19 5.61 19 11.22 19 17 C21.97 17 24.94 17 28 17 C28 19.31 28 21.62 28 24 C30.64 24 33.28 24 36 24 C36 26.31 36 28.62 36 31 C37.7015625 30.9690625 37.7015625 30.9690625 39.4375 30.9375 C43 31 43 31 44 32 C44.04092937 34.33297433 44.04241723 36.66705225 44 39 C46.64 39 49.28 39 52 39 C52 41.97 52 44.94 52 48 C54.97 48 57.94 48 61 48 C61 51.3 61 54.6 61 58 C63.97 58 66.94 58 70 58 C70 60.97 70 63.94 70 67 C72.64 67 75.28 67 78 67 C78 67.99 78 68.98 78 70 C78.66 70 79.32 70 80 70 C80 72.97 80 75.94 80 79 C82.97 79 85.94 79 89 79 C89 52.93 89 26.86 89 0 C95.27 0 101.54 0 108 0 C108 47.85 108 95.7 108 145 C101.73 145 95.46 145 89 145 C89 129.49 89 113.98 89 98 C85.37 98 81.74 98 78 98 C78 95.03 78 92.06 78 89 C75.03 89 72.06 89 69 89 C69 86.69 69 84.38 69 82 C68.195625 82.020625 67.39125 82.04125 66.5625 82.0625 C64 82 64 82 63 81 C62.95936168 79.33382885 62.957279 77.66611905 63 76 C60.03 76 57.06 76 54 76 C54 73.03 54 70.06 54 67 C51.03 67 48.06 67 45 67 C45 64.03 45 61.06 45 58 C42.03 58 39.06 58 36 58 C36 55.03 36 52.06 36 49 C34.700625 49.020625 33.40125 49.04125 32.0625 49.0625 C30.70834367 49.08399454 29.35243917 49.07148199 28 49 C27 48 27 48 26.9375 44.4375 C26.958125 43.303125 26.97875 42.16875 27 41 C24.36 41 21.72 41 19 41 C19 75.65 19 110.3 19 146 C12.73 146 6.46 146 0 146 C0 97.82 0 49.64 0 0 Z " fill="#E97628" transform="translate(1146,271)"/>
<path d="M0 0 C6.27 0 12.54 0 19 0 C19 10.23 19 20.46 19 31 C21.64 31 24.28 31 27 31 C28 32 28 32 28.09765625 33.84765625 C28.06510417 35.8984375 28.03255208 37.94921875 28 40 C30.64 40 33.28 40 36 40 C36 42.64 36 45.28 36 48 C38.97 48 41.94 48 45 48 C45 50.64 45 53.28 45 56 C47.64 56 50.28 56 53 56 C53.495 58.97 53.495 58.97 54 62 C55.74627478 59.38058783 56.38722388 57.96175123 57 55 C59.64 55 62.28 55 65 55 C65 52.69 65 50.38 65 48 C67.64 48 70.28 48 73 48 C73 45.36 73 42.72 73 40 C75.97 40 78.94 40 82 40 C82 37.03 82 34.06 82 31 C84.64 31 87.28 31 90 31 C90 20.77 90 10.54 90 0 C96.27 0 102.54 0 109 0 C109 13.2 109 26.4 109 40 C106.36 40 103.72 40 101 40 C101 42.97 101 45.94 101 49 C98.03 49 95.06 49 92 49 C92 51.97 92 54.94 92 58 C89.03 58 86.06 58 83 58 C83 60.97 83 63.94 83 67 C80.03 67 77.06 67 74 67 C74 70.96 74 74.92 74 79 C76.97 79 79.94 79 83 79 C83 81.97 83 84.94 83 88 C85.97 88 88.94 88 92 88 C92 90.97 92 93.94 92 97 C94.64 97 97.28 97 100 97 C100.495 100.96 100.495 100.96 101 105 C103.64 105.33 106.28 105.66 109 106 C109 118.87 109 131.74 109 145 C103.06 145 97.12 145 91 145 C91 134.77 91 124.54 91 114 C88.03 114 85.06 114 82 114 C82 111.36 82 108.72 82 106 C79.03 106 76.06 106 73 106 C73 103.03 73 100.06 73 97 C70.36 97 67.72 97 65 97 C65 94.03 65 91.06 65 88 C62.03 88 59.06 88 56 88 C56 86.35 56 84.7 56 83 C55.01 83.495 55.01 83.495 54 84 C53.505 85.98 53.505 85.98 53 88 C50.03 88 47.06 88 44 88 C44 90.97 44 93.94 44 97 C41.36 97 38.72 97 36 97 C36 99.64 36 102.28 36 105 C33.03 105 30.06 105 27 105 C27 107.97 27 110.94 27 114 C24.36 114 21.72 114 19 114 C19 124.56 19 135.12 19 146 C12.73 146 6.46 146 0 146 C0 132.8 0 119.6 0 106 C2.97 106 5.94 106 9 106 C9 103.03 9 100.06 9 97 C11.64 97 14.28 97 17 97 C17 94.03 17 91.06 17 88 C19.97 88 22.94 88 26 88 C26 84.7 26 81.4 26 78 C28.97 78 31.94 78 35 78 C35 74.37 35 70.74 35 67 C32.36 67 29.72 67 27 67 C27 64.03 27 61.06 27 58 C23.7 58 20.4 58 17 58 C17 55.03 17 52.06 17 49 C14.36 49 11.72 49 9 49 C9 46.03 9 43.06 9 40 C6.03 40 3.06 40 0 40 C0 26.8 0 13.6 0 0 Z " fill="#EA7728" transform="translate(1957,271)"/>
<path d="M0 0 C27.39 0 54.78 0 83 0 C83 6.27 83 12.54 83 19 C57.26 19 31.52 19 5 19 C5 33.19 5 47.38 5 62 C25.46 62 45.92 62 67 62 C67 68.27 67 74.54 67 81 C46.54 81 26.08 81 5 81 C5 95.52 5 110.04 5 125 C30.74 125 56.48 125 83 125 C83 131.27 83 137.54 83 144 C55.61 144 28.22 144 0 144 C0 139.05 0 134.1 0 129 C-4.62 129 -9.24 129 -14 129 C-14 91.38 -14 53.76 -14 15 C-9.38 15 -4.76 15 0 15 C0 10.05 0 5.1 0 0 Z " fill="#EA7627" transform="translate(1845,272)"/>
<path d="M0 0 C27.39 0 54.78 0 83 0 C83 6.6 83 13.2 83 20 C56.6 20 30.2 20 3 20 C3 34.19 3 48.38 3 63 C23.79 63 44.58 63 66 63 C66 69.6 66 76.2 66 83 C45.21 83 24.42 83 3 83 C3 103.46 3 123.92 3 145 C-3.27 145 -9.54 145 -16 145 C-16 102.43 -16 59.86 -16 16 C-10.72 16 -5.44 16 0 16 C0 10.72 0 5.44 0 0 Z " fill="#E87528" transform="translate(1302,271)"/>
<path d="M0 0 C3.3 0 6.6 0 10 0 C10 159.72 10 319.44 10 484 C6.7 484 3.4 484 0 484 C0 324.28 0 164.56 0 0 Z " fill="#EC7623" transform="translate(976,109)"/>
<path d="M0 0 C17.16 0 34.32 0 52 0 C52 19.47 52 38.94 52 59 C28.9 59 5.8 59 -18 59 C-18 45.47 -18 31.94 -18 18 C-15.03 18 -12.06 18 -9 18 C-9 14.7 -9 11.4 -9 8 C-6.03 8 -3.06 8 0 8 C0 5.36 0 2.72 0 0 Z " fill="#201F3F" transform="translate(1586,291)"/>
<path d="M0 0 C22.44 0 44.88 0 68 0 C68 14.19 68 28.38 68 43 C65.03 43 62.06 43 59 43 C59 45.64 59 48.28 59 51 C39.53 51 20.06 51 0 51 C0 34.17 0 17.34 0 0 Z " fill="#232140" transform="translate(1430,291)"/>
<path d="M0 0 C6.27 0 12.54 0 19 0 C19 47.85 19 95.7 19 145 C12.73 145 6.46 145 0 145 C0 97.15 0 49.3 0 0 Z " fill="#ED7628" transform="translate(1094,271)"/>
<path d="M0 0 C3.3 0 6.6 0 10 0 C10 159.72 10 319.44 10 484 C6.7 484 3.4 484 0 484 C0 324.28 0 164.56 0 0 Z M2 2 C2 160.4 2 318.8 2 482 C3.98 482 5.96 482 8 482 C8 323.6 8 165.2 8 2 C6.02 2 4.04 2 2 2 Z " fill="#E07928" transform="translate(976,109)"/>
<path d="M0 0 C6.27 0 12.54 0 19 0 C19 47.85 19 95.7 19 145 C12.73 145 6.46 145 0 145 C0 97.15 0 49.3 0 0 Z M2 2 C2 48.86 2 95.72 2 144 C7.28 144 12.56 144 18 144 C18 97.14 18 50.28 18 2 C12.72 2 7.44 2 2 2 Z " fill="#E67A33" transform="translate(1094,271)"/>
<path d="M0 0 C6.27 0 12.54 0 19 0 C19 3.3 19 6.6 19 10 C18.67 10 18.34 10 18 10 C18 7.36 18 4.72 18 2 C12.72 2 7.44 2 2 2 C2 48.86 2 95.72 2 144 C7.61 144 13.22 144 19 144 C19 144.33 19 144.66 19 145 C12.73 145 6.46 145 0 145 C0 97.15 0 49.3 0 0 Z " fill="#D57531" transform="translate(1689,271)"/>
<path d="M0 0 C2.97 0 5.94 0 9 0 C9 0.33 9 0.66 9 1 C6.69 1.66 4.38 2.32 2 3 C1.67 14.55 1.34 26.1 1 38 C6.28 38 11.56 38 17 38 C17 28.1 17 18.2 17 8 C17.33 8 17.66 8 18 8 C18 18.23 18 28.46 18 39 C12.06 39 6.12 39 0 39 C0 26.13 0 13.26 0 0 Z " fill="#FA862A" transform="translate(1957,377)"/>
<path d="M0 0 C0.66 0 1.32 0 2 0 C2 1.65 2 3.3 2 5 C4.97 5 7.94 5 11 5 C11 5.33 11 5.66 11 6 C4.12631267 6.74464946 -2.16920852 7.18225237 -9 6 C-9 8.64 -9 11.28 -9 14 C-9.33 14 -9.66 14 -10 14 C-10 11.03 -10 8.06 -10 5 C-7.03 5 -4.06 5 -1 5 C-0.67 3.35 -0.34 1.7 0 0 Z " fill="#5E413C" transform="translate(2011,354)"/>
<path d="M0 0 C2.64 0 5.28 0 8 0 C7.34 0.66 6.68 1.32 6 2 C4.68 2 3.36 2 2 2 C2 3.32 2 4.64 2 6 C1.34 6 0.68 6 0 6 C0 4.02 0 2.04 0 0 Z " fill="#11173B" transform="translate(2032,338)"/>
</svg>
